<?xml version="1.0" encoding="utf-8"?>
<!-- Generator: Adobe Illustrator 19.2.1, SVG Export Plug-In . SVG Version: 6.00 Build 0)  -->
<svg version="1.1" id="layer" xmlns="http://www.w3.org/2000/svg" xmlns:xlink="http://www.w3.org/1999/xlink" x="0px" y="0px"
	 viewBox="0 0 652 652" style="enable-background:new 0 0 652 652;" xml:space="preserve">
<style type="text/css">
	.st0{fill:#201515;}
	.st1{fill:#FF4F00;}
</style>
<path class="st0" d="M162.3,351.1l-0.1-0.3l53.3-48.8v-23.5H130V302h51.1l0.1,0.2l-52.8,48.9v23.5h88.1v-23.5H162.3z M269,276.2
	c-9.9,0-17.9,1.5-24.1,4.5c-5.8,2.6-10.7,6.9-14,12.3c-3.2,5.4-5.2,11.5-5.9,17.8l26,3.6c0.9-5.5,2.8-9.5,5.6-11.8
	c3.2-2.4,7.2-3.6,11.2-3.5c5.3,0,9.1,1.4,11.5,4.2c2.4,2.8,3.6,6.7,3.6,11.9v2.6h-25c-12.7,0-21.8,2.8-27.4,8.5
	c-5.6,5.6-8.3,13.1-8.3,22.3c0,9.5,2.8,16.5,8.3,21.1c5.5,4.6,12.5,6.9,20.9,6.9c10.4,0,18.4-3.6,24-10.8c3.3-4.4,5.7-9.4,6.9-14.8
	h0.9l3.6,23.5h23.5V315c0-12.3-3.2-21.9-9.7-28.6S283.5,276.2,269,276.2z M277.2,349.7c-3.7,3.1-8.6,4.7-14.7,4.7
	c-5,0-8.5-0.9-10.5-2.6c-1-0.8-1.7-1.9-2.2-3c-0.5-1.2-0.8-2.4-0.7-3.7c-0.1-1.2,0.1-2.4,0.6-3.5s1.1-2.1,1.9-3
	c0.9-0.8,1.9-1.5,3.1-1.9c1.2-0.4,2.4-0.6,3.6-0.5h24.6v1.6c0,2.3-0.4,4.6-1.4,6.6C280.4,346.4,279,348.3,277.2,349.7z M452.6,278.5
	h-27.8v96.2h27.8V278.5z M616.7,278.5c-7.9,0-14,2.8-18.6,8.3c-3.2,4-5.7,9.9-7.4,17.7h-0.8l-3.6-26h-23.7v96.2h27.8v-49.3
	c0-6.2,1.5-11,4.4-14.3c2.9-3.3,8.3-5,16.1-5h10.6v-27.6H616.7z M535,281.6c-6.5-3.9-14.7-5.8-24.6-5.8c-15.6,0-27.7,4.4-36.5,13.3
	c-8.8,8.9-13.2,21.1-13.2,36.6c-0.2,9.4,1.8,18.7,6,27.2c3.8,7.5,9.7,13.8,17,18c7.4,4.3,16.1,6.4,26.3,6.4c8.8,0,16.1-1.4,22-4.1
	c5.5-2.4,10.4-6.2,14-11.1c3.5-4.7,6.1-10.1,7.6-15.7l-24-6.7c-1,3.7-3,7-5.6,9.8c-2.7,2.7-7.2,4.1-13.6,4.1
	c-7.6,0-13.2-2.2-16.9-6.5c-2.7-3.1-4.4-7.6-5.1-13.4H554c0.3-2.7,0.4-5,0.4-6.8v-6c0.2-8-1.5-16-4.9-23.3
	C546.4,290.9,541.3,285.3,535,281.6z M509.6,298.8c11.3,0,17.7,5.5,19.2,16.6h-39.9c0.6-3.7,2.2-7.2,4.5-10.2
	C497,300.9,502.4,298.8,509.6,298.8z M439,239.7c-2.1-0.1-4.2,0.3-6.1,1c-2,0.8-3.7,1.9-5.2,3.3c-1.5,1.5-2.6,3.2-3.4,5.2
	c-0.8,1.9-1.1,4-1,6.1c-0.1,2.1,0.3,4.2,1.1,6.1c0.8,2,1.9,3.7,3.4,5.2c1.5,1.5,3.3,2.6,5.2,3.4s4,1.1,6.1,1c2.1,0.1,4.2-0.3,6.1-1
	c1.9-0.8,3.7-1.9,5.2-3.4c1.5-1.5,2.6-3.3,3.3-5.2c0.7-2,1.1-4,1-6.1c0.1-2.1-0.2-4.2-1-6.1c-0.8-1.9-1.9-3.7-3.4-5.2
	c-1.5-1.5-3.2-2.6-5.2-3.4C443.2,240,441.1,239.6,439,239.7L439,239.7z M381.6,275.8c-9.5,0-17.1,3-22.8,8.9
	c-4.3,4.4-7.4,11-9.4,19.7h-0.9l-3.6-26h-23.7v123.8h27.8v-51h1c0.8,3.4,2,6.7,3.5,9.9c2.4,5.1,6.2,9.5,11.1,12.4
	c5,2.7,10.7,4.1,16.4,4c11.6,0,20.5-4.5,26.6-13.6c6.1-9.1,9.1-21.7,9.1-37.9c0-15.7-2.9-28-8.8-36.8
	C402,280.3,393.2,275.8,381.6,275.8z M384.4,345.5c-3.2,4.7-8.3,7-15.2,7c-2.8,0.1-5.7-0.4-8.3-1.6c-2.6-1.2-4.9-3-6.6-5.2
	c-3.6-4.5-5.4-10.7-5.4-18.6v-1.8c0-8,1.8-14.1,5.4-18.3c3.6-4.2,8.6-6.3,14.9-6.3c7,0,12.1,2.2,15.3,6.7c3.2,4.5,4.8,10.7,4.8,18.7
	C389.3,334.4,387.7,340.9,384.4,345.5L384.4,345.5z"/>
<path class="st1" d="M117.6,351.1H21.4v23.6h96.2V351.1z"/>
</svg>
